<?xml version="1.0" encoding="UTF-8"?>
<!DOCTYPE svg PUBLIC "-//W3C//DTD SVG 1.1//EN" "http://www.w3.org/Graphics/SVG/1.1/DTD/svg11.dtd">
<!-- Creator: CorelDRAW -->
<svg xmlns="http://www.w3.org/2000/svg" xml:space="preserve" width="2.38474in" height="0.374909in" style="shape-rendering:geometricPrecision; text-rendering:geometricPrecision; image-rendering:optimizeQuality; fill-rule:evenodd; clip-rule:evenodd"
viewBox="0 0 0.386827 0.0608137"
 xmlns:xlink="http://www.w3.org/1999/xlink">
 <defs>
  <style type="text/css">
   <![CDATA[
    .fil1 {fill:#F8C300}
    .fil0 {fill:#1F1A17;fill-rule:nonzero}
   ]]>
  </style>
 </defs>
 <g id="Layer_x0020_1">
  <metadata id="CorelCorpID_0Corel-Layer"/>
  <path class="fil0" d="M0.00711294 0.0405695c0.00234756,0.00265857 0.00466894,0.00465553 0.00695009,0.00596534 0.00228115,0.00132258 0.00454888,0.00198355 0.00681534,0.00198355 0.00210616,0 0.00384704,-0.000566455 0.00519644,-0.00170064 0.00136281,-0.00113355 0.00203783,-0.00256405 0.00203783,-0.00430493 0,-0.00192991 -0.000580504,-0.00341406 -0.00175492,-0.00445373 -0.00117314,-0.00103903 -0.00383235,-0.00211894 -0.0079623,-0.00322502 -0.00566838,-0.00152566 -0.00967699,-0.00352262 -0.0120246,-0.00596534 -0.00234948,-0.00245677 -0.00352262,-0.00581718 -0.00352262,-0.0100825 0,-0.00553299 0.0018488,-0.0100538 0.00556045,-0.0135496 0.0036976,-0.0034958 0.00850257,-0.00523603 0.0143996,-0.00523603 0.00319948,0 0.00622206,0.000431068 0.00908307,0.00128107 0.00286165,0.000864051 0.00556109,0.00215981 0.00812515,0.00390068l-0.00493972 0.0113508c-0.0017958,-0.00152566 -0.00363055,-0.00268603 -0.00551958,-0.00346898 -0.00189031,-0.000768897 -0.00375252,-0.00116037 -0.00558727,-0.00116037 -0.00190372,0 -0.00344215,0.000459167 -0.00462935,0.00136281 -0.00118783,0.000903645 -0.00178175,0.00207807 -0.00178175,0.0034958 0,0.00145733 0.000526222,0.0026177 0.00156589,0.00348239 0.00103839,0.000876823 0.0030494,0.00170064 0.00601834,0.00249636l0.000715253 0.000202442c0.00643792,0.00172746 0.0106624,0.00364396 0.0126868,0.00572202 0.00137686,0.00143114 0.00241589,0.00313179 0.00313179,0.00512875 0.000715253,0.00198355 0.00106522,0.00419764 0.00106522,0.00661354 0,0.00614032 -0.00201037,0.01108 -0.00604516,0.0148051 -0.00403607,0.00373784 -0.00940749,0.00560069 -0.0161283,0.00560069 -0.00403543,0 -0.00770685,-0.000688431 -0.011013,-0.00205124 -0.00330677,-0.0013775 -0.00649156,-0.00352262 -0.00955565,-0.00645133l0.00711294 -0.0117416z"/>
  <path class="fil0" d="M0.0910191 0.00146435l0.00727387 0.0275194c0.000337191,0.00124147 0.000661609,0.00253723 0.000944517,0.00387322 0.000297596,0.0013494 0.000593915,0.00288847 0.000918334,0.00462935 0.000391473,-0.00205188 0.000728664,-0.00375252 0.0009988,-0.00508851 0.000282908,-0.00132258 0.000553682,-0.00246954 0.000809769,-0.00341406l0.00680193 -0.0275194 0.0159386 0 -0.016371 0.057885 -0.0146295 0 -0.00715253 -0.0247114c-0.000270136,-0.000864051 -0.000702481,-0.00256405 -0.00130981,-0.00510192 -0.000256086,-0.00113291 -0.000471939,-0.00201037 -0.000634148,-0.00264452 -0.000121338,0.000553044 -0.000310369,0.00132322 -0.000553682,0.00233479 -0.000607326,0.00255064 -0.00106649,0.00435921 -0.00137622,0.00541165l-0.0070446 0.0247114 -0.014671 0 -0.0163308 -0.057885 0.0159399 0 0.00663972 0.0276809c0.00032378,0.00141709 0.000634787,0.00284824 0.000931106,0.0042647 0.000311007,0.00143051 0.000593915,0.00288847 0.00085064,0.00438603 0.000242675,-0.00110673 0.000498761,-0.0022671 0.000768897,-0.00346834 0.000284185,-0.00121465 0.000688431,-0.00294148 0.00125552,-0.00518239l0.00727451 -0.0276809 0.012727 0z"/>
  <path class="fil0" d="M0.213307 0.037985l0 -0.0121331 0.0310011 0c2.6822e-005,0.000392112 5.3644e-005,0.000837229 6.7055e-005,0.00130981 1.3411e-005,0.000472578 1.3411e-005,0.00117442 1.3411e-005,0.00209148 0,0.00997459 -0.00263111,0.017707 -0.00788183,0.023201 -0.0052635,0.00549212 -0.0126593,0.00824521 -0.0222003,0.00824521 -0.00469704,0 -0.00886722,-0.000701203 -0.0125112,-0.00211894 -0.00365801,-0.00140368 -0.00692327,-0.00356222 -0.00978492,-0.0064641 -0.00275372,-0.00276713 -0.00487202,-0.00604644 -0.00639768,-0.00982515 -0.00151097,-0.00377871 -0.00226646,-0.00774708 -0.00226646,-0.0118904 0,-0.00431898 0.000742075,-0.00828608 0.00221281,-0.0119166 0.00147138,-0.00363055 0.00367078,-0.00688367 0.00659949,-0.00978555 0.00290188,-0.00282014 0.00623547,-0.00495313 0.00998672,-0.00641045 0.00375188,-0.00144456 0.00780137,-0.00217322 0.0121612,-0.00217322 0.00566774,0 0.0106752,0.00112078 0.0150337,0.00336105 0.00435921,0.00224091 0.00803063,0.00557386 0.011013,0.0100001l-0.0136856 0.00655989c-0.00163231,-0.00224091 -0.0034677,-0.00390068 -0.00550553,-0.004994 -0.00205188,-0.00109332 -0.00433303,-0.00164636 -0.00685557,-0.00164636 -0.00472386,0 -0.00843615,0.0015793 -0.0111484,0.00472386 -0.00271349,0.00315797 -0.0040763,0.0074629 -0.0040763,0.0129154 0,0.00550617 0.00136281,0.00985197 0.0040763,0.0130099 0.00271221,0.00317138 0.0064245,0.00475068 0.0111484,0.00475068 0.00399392,0 0.00734092,-0.00098475 0.0100135,-0.00295553 0.00267198,-0.00195673 0.00423787,-0.00457506 0.00468363,-0.00785501l-0.0156966 0z"/>
  <path class="fil0" d="M0.281557 0.037985l0 -0.0121331 0.0310011 0c2.6822e-005,0.000392112 5.3644e-005,0.000837229 6.7055e-005,0.00130981 1.3411e-005,0.000472578 1.3411e-005,0.00117442 1.3411e-005,0.00209148 0,0.00997459 -0.00263111,0.017707 -0.00788183,0.023201 -0.0052635,0.00549212 -0.0126593,0.00824521 -0.0222003,0.00824521 -0.00469704,0 -0.00886722,-0.000701203 -0.0125112,-0.00211894 -0.00365801,-0.00140368 -0.00692327,-0.00356222 -0.00978492,-0.0064641 -0.00275372,-0.00276713 -0.00487202,-0.00604644 -0.00639768,-0.00982515 -0.00151097,-0.00377871 -0.00226646,-0.00774708 -0.00226646,-0.0118904 0,-0.00431898 0.000742075,-0.00828608 0.00221281,-0.0119166 0.00147138,-0.00363055 0.00367078,-0.00688367 0.00659949,-0.00978555 0.00290188,-0.00282014 0.00623611,-0.00495313 0.00998672,-0.00641045 0.00375188,-0.00144456 0.00780137,-0.00217322 0.0121612,-0.00217322 0.00566774,0 0.0106752,0.00112078 0.0150337,0.00336105 0.00435921,0.00224091 0.00803127,0.00557386 0.011013,0.0100001l-0.013685 0.00655989c-0.00163295,-0.00224091 -0.00346834,-0.00390068 -0.00550617,-0.004994 -0.00205188,-0.00109332 -0.00433303,-0.00164636 -0.00685557,-0.00164636 -0.00472386,0 -0.00843551,0.0015793 -0.0111484,0.00472386 -0.00271349,0.00315797 -0.0040763,0.0074629 -0.0040763,0.0129154 0,0.00550617 0.00136281,0.00985197 0.0040763,0.0130099 0.00271285,0.00317138 0.0064245,0.00475068 0.0111484,0.00475068 0.00399392,0 0.00734092,-0.00098475 0.0100135,-0.00295553 0.00267198,-0.00195673 0.00423787,-0.00457506 0.00468363,-0.00785501l-0.0156966 0z"/>
  <polygon class="fil0" points="0.322693,0.0593494 0.322693,0.00146435 0.338631,0.00146435 0.338631,0.0593494 "/>
  <polygon class="fil0" points="0.351358,0.0593494 0.351358,0.00146435 0.386827,0.00146435 0.386827,0.0141512 0.366745,0.0141512 0.366745,0.0241922 0.38568,0.0241922 0.38568,0.0366088 0.366745,0.0366088 0.366745,0.0463797 0.386827,0.0463797 0.386827,0.0593494 "/>
  <path class="fil1" d="M0.151368 0.00109332l0.0315797 0.0586265 -0.0631619 0 0.0315822 -0.0586265zm0 0.0254917l0.00566838 0.0105225 0.00566774 0.0105225 -0.0113361 0 -0.0113368 0 0.00566838 -0.0105225 0.00566838 -0.0105225z"/>
 </g>
</svg>
