<?xml version="1.0" encoding="UTF-8"?>
<!DOCTYPE svg PUBLIC "-//W3C//DTD SVG 1.1//EN" "http://www.w3.org/Graphics/SVG/1.1/DTD/svg11.dtd">
<!-- Creator: CorelDRAW -->
<svg xmlns="http://www.w3.org/2000/svg" xml:space="preserve" width="2.38594in" height="0.375094in" style="shape-rendering:geometricPrecision; text-rendering:geometricPrecision; image-rendering:optimizeQuality; fill-rule:evenodd; clip-rule:evenodd"
viewBox="0 0 0.257371 0.0404613"
 xmlns:xlink="http://www.w3.org/1999/xlink">
 <defs>
  <style type="text/css">
   <![CDATA[
    .fil1 {fill:#F8C300}
    .fil0 {fill:white;fill-rule:nonzero}
   ]]>
  </style>
 </defs>
 <g id="Layer_x0020_1">
  <metadata id="CorelCorpID_0Corel-Layer"/>
  <g id="_163039520">
   <path id="_163039544" class="fil0" d="M0.00473225 0.0269921c0.00156241,0.00176923 0.00310699,0.00309807 0.00462438,0.00396909 0.00151782,0.000879945 0.0030263,0.00131992 0.00453477,0.00131992 0.00140103,0 0.00255914,-0.000377119 0.00345693,-0.00113136 0.000907125,-0.000754238 0.00135602,-0.00170595 0.00135602,-0.00286449 0,-0.00128382 -0.000386038,-0.00227163 -0.00116703,-0.00296302 -0.000781418,-0.000691385 -0.00255023,-0.00140995 -0.00529793,-0.00214635 -0.00377162,-0.00101457 -0.00643863,-0.00234341 -0.00800104,-0.00396867 -0.00156241,-0.00163461 -0.00234341,-0.00387014 -0.00234341,-0.00670788 0,-0.00368158 0.00122988,-0.00668962 0.00369942,-0.00901561 0.00246019,-0.00232557 0.00565721,-0.00348368 0.00958129,-0.00348368 0.00212809,0 0.00413939,0.000287086 0.00604325,0.000852765 0.00190343,0.000574597 0.00369942,0.00143671 0.00540538,0.00259524l-0.0032862 0.00755173c-0.00119464,-0.00101457 -0.0024156,-0.00178707 -0.00367267,-0.00230773 -0.00125749,-0.000511744 -0.00249629,-0.000772075 -0.00371768,-0.000772075 -0.00126598,0 -0.00228989,0.000304923 -0.00307981,0.0009067 -0.000790337,0.000601777 -0.00118529,0.00138277 -0.00118529,0.00232557 0,0.000969978 0.000349939,0.00174205 0.00104132,0.00231707 0.000691385,0.000583516 0.00202956,0.00113136 0.00400519,0.00166094l0.000475646 0.000134625c0.00428336,0.00114962 0.00709392,0.00242452 0.00844102,0.00380729 0.000915618,0.000952141 0.001607,0.0020835 0.00208307,0.00341233 0.000476071,0.00131992 0.000709222,0.00279272 0.000709222,0.00440015 0,0.00408546 -0.00133775,0.00737209 -0.0040226,0.00985054 -0.00268485,0.00248737 -0.00625899,0.00372618 -0.0107305,0.00372618 -0.00268485,0 -0.00512721,-0.000457809 -0.00732749,-0.00136451 -0.00219986,-0.000916043 -0.00431903,-0.00234383 -0.00635752,-0.00429228l0.00473225 -0.00781248z"/>
   <path id="_163040024" class="fil0" d="M0.0605582 0.0009738l0.00484012 0.0183094c0.000224658,0.00082601 0.000439972,0.00168812 0.000628532,0.00257698 0.000197478,0.000898206 0.000394956,0.00192169 0.000610695,0.00308023 0.000260331,-0.00136493 0.000484989,-0.00249629 0.00066463,-0.00338558 0.00018856,-0.000879945 0.000367776,-0.0016431 0.000538499,-0.00227163l0.00452586 -0.0183094 0.0106048 0 -0.0108923 0.0385133 -0.00973375 0 -0.00475901 -0.0164416c-0.000179641,-0.000574597 -0.000467152,-0.00170595 -0.000871026,-0.00339407 -0.000170723,-0.000754238 -0.000314266,-0.00133818 -0.000422136,-0.00175989 -8.06899e-005,0.000368201 -0.000206396,0.000879945 -0.000368201,0.00155349 -0.000403874,0.00169704 -0.000709222,0.00290017 -0.000916043,0.00360047l-0.00468723 0.0164416 -0.00976051 0 -0.0108647 -0.0385133 0.0106044 0 0.00441756 0.0184173c0.000215739,0.000942798 0.000422136,0.00189451 0.000619614,0.00283731 0.000206821,0.000951716 0.000395381,0.00192169 0.000565679,0.00291843 0.000161805,-0.000736402 0.000332527,-0.00150848 0.000512169,-0.00230773 0.00018856,-0.000808173 0.000457809,-0.00195737 0.000834928,-0.00344801l0.00484012 -0.0184173 0.00846735 0z"/>
   <path id="_163039952" class="fil0" d="M0.141922 0.0252725l0 -0.00807239 0.020626 0c1.78367e-005,0.000260331 3.60981e-005,0.00055676 4.50165e-005,0.000871026 8.91836e-006,0.000314266 8.91836e-006,0.000781418 8.91836e-006,0.00139169 0,0.00663611 -0.00175097,0.0117812 -0.005244,0.015436 -0.00350194,0.0036544 -0.00842275,0.00548649 -0.0147714,0.00548649 -0.00312482,0 -0.00589971,-0.000467152 -0.00832423,-0.00140995 -0.00243344,-0.00093388 -0.00460612,-0.00237058 -0.00650998,-0.0043012 -0.00183166,-0.00184058 -0.00324161,-0.0040226 -0.00425618,-0.00653716 -0.00100565,-0.00251413 -0.00150848,-0.00515396 -0.00150848,-0.00791058 0,-0.00287384 0.000493907,-0.00551367 0.00147238,-0.00792927 0.000978896,-0.00241518 0.00244236,-0.00457937 0.00439123,-0.00650998 0.00193061,-0.00187668 0.00414831,-0.00329555 0.0066446,-0.0042651 0.00249629,-0.000961059 0.00519006,-0.00144605 0.00809065,-0.00144605 0.00377119,0 0.00710284,0.00074532 0.010003,0.00223596 0.00290059,0.00149064 0.00534295,0.00370876 0.00732749,0.00665395l-0.00910522 0.00436405c-0.00108677,-0.00149064 -0.00230773,-0.00259524 -0.00366375,-0.0033223 -0.00136493,-0.000727483 -0.00288233,-0.00109568 -0.00456153,-0.00109568 -0.00314266,0 -0.0056122,0.00105067 -0.0074171,0.00314308 -0.00180491,0.00210091 -0.00271161,0.0049654 -0.00271161,0.00859305 0,0.00366375 0.0009067,0.00655499 0.00271161,0.00865633 0.00180491,0.00211025 0.00427444,0.00316092 0.0074171,0.00316092 0.0026581,0 0.00488471,-0.000655712 0.00666286,-0.00196671 0.00177773,-0.00130208 0.00281948,-0.00304413 0.0031159,-0.00522616l-0.0104434 0z"/>
   <path id="_163039592" class="fil0" d="M0.187331 0.0252725l0 -0.00807239 0.020626 0c1.78367e-005,0.000260331 3.60981e-005,0.00055676 4.50165e-005,0.000871026 8.91836e-006,0.000314266 8.91836e-006,0.000781418 8.91836e-006,0.00139169 0,0.00663611 -0.00175097,0.0117812 -0.005244,0.015436 -0.00350194,0.0036544 -0.00842275,0.00548649 -0.0147714,0.00548649 -0.00312482,0 -0.00589971,-0.000467152 -0.00832423,-0.00140995 -0.00243344,-0.00093388 -0.0046057,-0.00237058 -0.00650955,-0.0043012 -0.00183166,-0.00184058 -0.00324161,-0.0040226 -0.00425618,-0.00653716 -0.00100565,-0.00251413 -0.00150848,-0.00515396 -0.00150848,-0.00791058 0,-0.00287384 0.000493907,-0.00551367 0.00147238,-0.00792927 0.000978896,-0.00241518 0.00244236,-0.00457937 0.00439123,-0.00650998 0.00193061,-0.00187668 0.00414789,-0.00329555 0.00664418,-0.0042651 0.00249629,-0.000961059 0.00519006,-0.00144605 0.00809065,-0.00144605 0.00377119,0 0.00710284,0.00074532 0.010003,0.00223596 0.00290059,0.00149064 0.00534295,0.00370876 0.00732749,0.00665395l-0.00910522 0.00436405c-0.00108677,-0.00149064 -0.00230773,-0.00259524 -0.00366375,-0.0033223 -0.00136493,-0.000727483 -0.00288233,-0.00109568 -0.00456153,-0.00109568 -0.00314266,0 -0.0056122,0.00105067 -0.0074171,0.00314308 -0.00180491,0.00210091 -0.00271161,0.0049654 -0.00271161,0.00859305 0,0.00366375 0.0009067,0.00655499 0.00271161,0.00865633 0.00180491,0.00211025 0.00427444,0.00316092 0.0074171,0.00316092 0.0026581,0 0.00488471,-0.000655712 0.00666286,-0.00196671 0.00177773,-0.00130208 0.00281948,-0.00304413 0.0031159,-0.00522616l-0.0104434 0z"/>
   <polygon id="_163039568" class="fil0" points="0.214701,0.0394871 0.214701,0.0009738 0.225306,0.0009738 0.225306,0.0394871 "/>
   <polygon id="_163039208" class="fil0" points="0.233773,0.0394871 0.233773,0.0009738 0.257371,0.0009738 0.257371,0.00941481 0.24401,0.00941481 0.24401,0.0160955 0.256608,0.0160955 0.256608,0.0243565 0.24401,0.0243565 0.24401,0.0308579 0.257371,0.0308579 0.257371,0.0394871 "/>
   <path id="_163039472" class="fil1" d="M0.100712 0.000726634l0.0210112 0.0390068 -0.0420242 0 0.0210129 -0.0390068zm0 0.0169606l0.00377119 0.00700134 0.00377119 0.00700091 -0.00754238 0 -0.00754281 0 0.00377119 -0.00700091 0.00377162 -0.00700134z"/>
  </g>
 </g>
</svg>
