<svg width="18" height="18" viewBox="0 0 18 18" fill="none" xmlns="http://www.w3.org/2000/svg">
<path d="M18 3.21396C18 3.88256 17.7915 4.53452 17.4034 5.07903C17.0154 5.62353 16.4672 6.03348 15.8352 6.25177C15.2032 6.47007 14.5189 6.48584 13.8775 6.29689C13.2361 6.10794 12.6696 5.72368 12.2569 5.19762L6.31963 8.16604C6.46614 8.71218 6.46614 9.2873 6.31963 9.83344L12.2569 12.8006C12.7489 12.1743 13.4561 11.7529 14.2411 11.6183C15.0262 11.4837 15.8333 11.6453 16.5059 12.0719C17.1786 12.4985 17.6689 13.1597 17.8817 13.9272C18.0946 14.6947 18.0148 15.5139 17.658 16.2259C17.3011 16.938 16.6926 17.4922 15.9503 17.7811C15.208 18.07 14.3849 18.073 13.6405 17.7896C12.8961 17.5061 12.2835 16.9564 11.9215 16.247C11.5594 15.5375 11.4737 14.7189 11.6809 13.9499L5.74364 10.9828C5.33104 11.509 4.76457 11.8934 4.12314 12.0825C3.48172 12.2716 2.79728 12.2559 2.16517 12.0377C1.53307 11.8195 0.984774 11.4095 0.596676 10.865C0.208577 10.3204 0 9.66842 0 8.99974C0 8.33106 0.208577 7.67904 0.596676 7.13449C0.984774 6.58995 1.53307 6.18001 2.16517 5.96177C2.79728 5.74353 3.48172 5.72787 4.12314 5.91697C4.76457 6.10606 5.33104 6.4905 5.74364 7.01672L11.6809 4.04702C11.5541 3.5708 11.5384 3.07184 11.635 2.58859C11.7315 2.10534 11.9377 1.6507 12.2377 1.25971C12.5376 0.868717 12.9234 0.551809 13.3652 0.333406C13.8069 0.115004 14.293 0.000938235 14.7858 0C15.6383 0 16.4558 0.338613 17.0586 0.941348C17.6614 1.54408 18 2.36157 18 3.21396Z" fill="white"/>
</svg>
